<svg xmlns="http://www.w3.org/2000/svg" xmlns:xlink="http://www.w3.org/1999/xlink" width="400" zoomAndPan="magnify" viewBox="0 0 300 299.999988" height="400" preserveAspectRatio="xMidYMid meet" version="1.0"><defs><g/></defs><rect x="-30" width="360" fill="#ffffff" y="-29.999999" height="359.999986" fill-opacity="1"/><rect x="-30" width="360" fill="#000000" y="-29.999999" height="359.999986" fill-opacity="1"/><g fill="#ffffff" fill-opacity="1"><g transform="translate(21.732426, 168.374986)"><g><path d="M 17.5 -28.03125 L 17.5 -22.21875 L 0.484375 -22.21875 L 0.484375 -28.03125 Z M 4.578125 -34.90625 L 12.140625 -34.90625 L 12.140625 -8.296875 C 12.140625 -7.398438 12.335938 -6.742188 12.734375 -6.328125 C 13.128906 -5.921875 13.796875 -5.71875 14.734375 -5.71875 C 15.066406 -5.71875 15.5 -5.742188 16.03125 -5.796875 C 16.5625 -5.859375 16.972656 -5.914062 17.265625 -5.96875 L 18.109375 -0.203125 C 17.347656 -0.015625 16.550781 0.113281 15.71875 0.1875 C 14.882812 0.269531 14.082031 0.3125 13.3125 0.3125 C 10.425781 0.3125 8.25 -0.351562 6.78125 -1.6875 C 5.3125 -3.019531 4.578125 -4.960938 4.578125 -7.515625 Z M 4.578125 -34.90625 "/></g></g></g><g fill="#ffffff" fill-opacity="1"><g transform="translate(40.799357, 168.374986)"><g><path d="M 12.796875 0.40625 C 10.847656 0.40625 9.144531 -0.015625 7.6875 -0.859375 C 6.238281 -1.710938 5.113281 -2.9375 4.3125 -4.53125 C 3.519531 -6.132812 3.125 -8.046875 3.125 -10.265625 L 3.125 -28.03125 L 10.6875 -28.03125 L 10.6875 -11.609375 C 10.6875 -9.828125 11.140625 -8.445312 12.046875 -7.46875 C 12.953125 -6.488281 14.203125 -6 15.796875 -6 C 16.859375 -6 17.800781 -6.222656 18.625 -6.671875 C 19.445312 -7.128906 20.085938 -7.800781 20.546875 -8.6875 C 21.015625 -9.582031 21.25 -10.664062 21.25 -11.9375 L 21.25 -28.03125 L 28.84375 -28.03125 L 28.84375 0 L 21.609375 0 L 21.5 -7.0625 L 22.140625 -7.0625 C 21.359375 -4.6875 20.203125 -2.847656 18.671875 -1.546875 C 17.140625 -0.242188 15.179688 0.40625 12.796875 0.40625 Z M 12.796875 0.40625 "/></g></g></g><g fill="#ffffff" fill-opacity="1"><g transform="translate(72.738361, 168.374986)"><g><path d="M 10.6875 -16.09375 L 10.6875 0 L 3.125 0 L 3.125 -28.03125 L 10.328125 -28.03125 L 10.4375 -20.96875 L 9.796875 -20.96875 C 10.554688 -23.34375 11.703125 -25.179688 13.234375 -26.484375 C 14.773438 -27.785156 16.742188 -28.4375 19.140625 -28.4375 C 21.085938 -28.4375 22.789062 -28.015625 24.25 -27.171875 C 25.707031 -26.328125 26.832031 -25.109375 27.625 -23.515625 C 28.414062 -21.921875 28.8125 -20.007812 28.8125 -17.78125 L 28.8125 0 L 21.25 0 L 21.25 -16.421875 C 21.25 -18.203125 20.800781 -19.585938 19.90625 -20.578125 C 19.007812 -21.566406 17.757812 -22.0625 16.15625 -22.0625 C 15.082031 -22.0625 14.132812 -21.828125 13.3125 -21.359375 C 12.5 -20.898438 11.859375 -20.226562 11.390625 -19.34375 C 10.921875 -18.46875 10.6875 -17.382812 10.6875 -16.09375 Z M 10.6875 -16.09375 "/></g></g></g><g fill="#ffffff" fill-opacity="1"><g transform="translate(104.677365, 168.374986)"><g><path d="M 15.8125 0.5625 C 12.957031 0.5625 10.492188 -0.03125 8.421875 -1.21875 C 6.347656 -2.40625 4.75 -4.082031 3.625 -6.25 C 2.5 -8.414062 1.9375 -10.960938 1.9375 -13.890625 C 1.9375 -16.785156 2.492188 -19.316406 3.609375 -21.484375 C 4.722656 -23.660156 6.296875 -25.363281 8.328125 -26.59375 C 10.359375 -27.820312 12.738281 -28.4375 15.46875 -28.4375 C 17.34375 -28.4375 19.082031 -28.128906 20.6875 -27.515625 C 22.300781 -26.910156 23.710938 -26.007812 24.921875 -24.8125 C 26.128906 -23.625 27.066406 -22.132812 27.734375 -20.34375 C 28.410156 -18.5625 28.75 -16.503906 28.75 -14.171875 L 28.75 -12.0625 L 4.953125 -12.0625 L 4.953125 -16.828125 L 25.0625 -16.828125 L 21.53125 -15.59375 C 21.53125 -17.050781 21.300781 -18.3125 20.84375 -19.375 C 20.382812 -20.4375 19.710938 -21.257812 18.828125 -21.84375 C 17.941406 -22.425781 16.847656 -22.71875 15.546875 -22.71875 C 14.234375 -22.71875 13.117188 -22.421875 12.203125 -21.828125 C 11.296875 -21.242188 10.597656 -20.429688 10.109375 -19.390625 C 9.628906 -18.359375 9.390625 -17.175781 9.390625 -15.84375 L 9.390625 -12.5 C 9.390625 -10.914062 9.660156 -9.570312 10.203125 -8.46875 C 10.742188 -7.375 11.507812 -6.539062 12.5 -5.96875 C 13.488281 -5.40625 14.644531 -5.125 15.96875 -5.125 C 16.863281 -5.125 17.679688 -5.253906 18.421875 -5.515625 C 19.160156 -5.785156 19.785156 -6.171875 20.296875 -6.671875 C 20.816406 -7.171875 21.210938 -7.78125 21.484375 -8.5 L 28.359375 -7.515625 C 27.921875 -5.890625 27.128906 -4.472656 25.984375 -3.265625 C 24.847656 -2.054688 23.421875 -1.113281 21.703125 -0.4375 C 19.984375 0.226562 18.019531 0.5625 15.8125 0.5625 Z M 15.8125 0.5625 "/></g></g></g><g fill="#ffffff" fill-opacity="1"><g transform="translate(135.245379, 168.374986)"><g><path d="M 3.125 10.609375 L 3.125 -28.03125 L 10.5625 -28.03125 L 10.5625 -23.515625 L 10.890625 -23.515625 C 11.285156 -24.304688 11.820312 -25.078125 12.5 -25.828125 C 13.175781 -26.585938 14.039062 -27.210938 15.09375 -27.703125 C 16.15625 -28.191406 17.4375 -28.4375 18.9375 -28.4375 C 21.09375 -28.4375 23.035156 -27.878906 24.765625 -26.765625 C 26.503906 -25.660156 27.890625 -24.035156 28.921875 -21.890625 C 29.953125 -19.753906 30.46875 -17.117188 30.46875 -13.984375 C 30.46875 -10.910156 29.960938 -8.296875 28.953125 -6.140625 C 27.953125 -3.992188 26.578125 -2.351562 24.828125 -1.21875 C 23.085938 -0.0820312 21.109375 0.484375 18.890625 0.484375 C 17.429688 0.484375 16.175781 0.242188 15.125 -0.234375 C 14.082031 -0.722656 13.21875 -1.335938 12.53125 -2.078125 C 11.84375 -2.828125 11.296875 -3.609375 10.890625 -4.421875 L 10.6875 -4.421875 L 10.6875 10.609375 Z M 16.625 -5.609375 C 17.945312 -5.609375 19.054688 -5.957031 19.953125 -6.65625 C 20.847656 -7.363281 21.53125 -8.347656 22 -9.609375 C 22.46875 -10.867188 22.703125 -12.335938 22.703125 -14.015625 C 22.703125 -15.671875 22.46875 -17.125 22 -18.375 C 21.53125 -19.632812 20.847656 -20.609375 19.953125 -21.296875 C 19.054688 -21.992188 17.945312 -22.34375 16.625 -22.34375 C 15.34375 -22.34375 14.238281 -22 13.3125 -21.3125 C 12.394531 -20.625 11.691406 -19.660156 11.203125 -18.421875 C 10.722656 -17.179688 10.484375 -15.710938 10.484375 -14.015625 C 10.484375 -12.328125 10.726562 -10.851562 11.21875 -9.59375 C 11.707031 -8.34375 12.414062 -7.363281 13.34375 -6.65625 C 14.269531 -5.957031 15.363281 -5.609375 16.625 -5.609375 Z M 16.625 -5.609375 "/></g></g></g><g fill="#ffffff" fill-opacity="1"><g transform="translate(167.64138, 168.374986)"><g><path d="M 3.125 0 L 3.125 -28.03125 L 10.46875 -28.03125 L 10.46875 -23.1875 L 10.71875 -23.1875 C 11.226562 -24.894531 12.070312 -26.179688 13.25 -27.046875 C 14.4375 -27.921875 15.84375 -28.359375 17.46875 -28.359375 C 17.875 -28.359375 18.296875 -28.34375 18.734375 -28.3125 C 19.179688 -28.28125 19.5625 -28.226562 19.875 -28.15625 L 19.875 -21.453125 C 19.5625 -21.554688 19.085938 -21.632812 18.453125 -21.6875 C 17.816406 -21.75 17.203125 -21.78125 16.609375 -21.78125 C 15.492188 -21.78125 14.484375 -21.535156 13.578125 -21.046875 C 12.671875 -20.554688 11.960938 -19.863281 11.453125 -18.96875 C 10.941406 -18.070312 10.6875 -17.015625 10.6875 -15.796875 L 10.6875 0 Z M 3.125 0 "/></g></g></g><g fill="#ffffff" fill-opacity="1"><g transform="translate(188.688643, 168.374986)"><g><path d="M 3.125 0 L 3.125 -28.03125 L 10.6875 -28.03125 L 10.6875 0 Z M 6.90625 -31.65625 C 5.738281 -31.65625 4.742188 -32.035156 3.921875 -32.796875 C 3.097656 -33.566406 2.6875 -34.5 2.6875 -35.59375 C 2.6875 -36.695312 3.097656 -37.628906 3.921875 -38.390625 C 4.742188 -39.148438 5.738281 -39.53125 6.90625 -39.53125 C 8.070312 -39.53125 9.0625 -39.148438 9.875 -38.390625 C 10.6875 -37.628906 11.09375 -36.695312 11.09375 -35.59375 C 11.09375 -34.5 10.6875 -33.566406 9.875 -32.796875 C 9.0625 -32.035156 8.070312 -31.65625 6.90625 -31.65625 Z M 6.90625 -31.65625 "/></g></g></g><g fill="#ffffff" fill-opacity="1"><g transform="translate(202.500104, 168.374986)"><g><path d="M 14.34375 0.578125 C 12.0625 0.578125 10.035156 0.242188 8.265625 -0.421875 C 6.492188 -1.085938 5.050781 -2.054688 3.9375 -3.328125 C 2.832031 -4.597656 2.140625 -6.117188 1.859375 -7.890625 L 8.984375 -8.859375 C 9.304688 -7.578125 9.925781 -6.601562 10.84375 -5.9375 C 11.757812 -5.28125 12.976562 -4.953125 14.5 -4.953125 C 15.9375 -4.953125 17.066406 -5.226562 17.890625 -5.78125 C 18.722656 -6.332031 19.140625 -7.03125 19.140625 -7.875 C 19.140625 -8.601562 18.835938 -9.195312 18.234375 -9.65625 C 17.640625 -10.125 16.742188 -10.484375 15.546875 -10.734375 L 10.6875 -11.703125 C 7.976562 -12.265625 5.945312 -13.210938 4.59375 -14.546875 C 3.238281 -15.890625 2.5625 -17.617188 2.5625 -19.734375 C 2.5625 -21.503906 3.046875 -23.039062 4.015625 -24.34375 C 4.992188 -25.65625 6.367188 -26.664062 8.140625 -27.375 C 9.910156 -28.082031 11.976562 -28.4375 14.34375 -28.4375 C 16.613281 -28.4375 18.578125 -28.113281 20.234375 -27.46875 C 21.890625 -26.832031 23.222656 -25.921875 24.234375 -24.734375 C 25.242188 -23.546875 25.882812 -22.148438 26.15625 -20.546875 L 19.375 -19.609375 C 19.132812 -20.597656 18.601562 -21.410156 17.78125 -22.046875 C 16.96875 -22.679688 15.875 -23 14.5 -23 C 13.226562 -23 12.179688 -22.734375 11.359375 -22.203125 C 10.535156 -21.671875 10.125 -20.984375 10.125 -20.140625 C 10.125 -19.421875 10.40625 -18.820312 10.96875 -18.34375 C 11.53125 -17.863281 12.445312 -17.492188 13.71875 -17.234375 L 18.796875 -16.21875 C 21.535156 -15.675781 23.566406 -14.78125 24.890625 -13.53125 C 26.222656 -12.28125 26.890625 -10.648438 26.890625 -8.640625 C 26.890625 -6.785156 26.351562 -5.171875 25.28125 -3.796875 C 24.21875 -2.421875 22.742188 -1.347656 20.859375 -0.578125 C 18.972656 0.191406 16.800781 0.578125 14.34375 0.578125 Z M 14.34375 0.578125 "/></g></g></g><g fill="#ffffff" fill-opacity="1"><g transform="translate(231.163958, 168.374986)"><g><path d="M 3.125 0 L 3.125 -28.03125 L 10.203125 -28.03125 L 10.515625 -21.203125 L 9.984375 -21.203125 C 10.421875 -22.890625 11.066406 -24.269531 11.921875 -25.34375 C 12.773438 -26.425781 13.773438 -27.21875 14.921875 -27.71875 C 16.078125 -28.226562 17.289062 -28.484375 18.5625 -28.484375 C 20.59375 -28.484375 22.265625 -27.847656 23.578125 -26.578125 C 24.890625 -25.316406 25.816406 -23.40625 26.359375 -20.84375 L 25.5 -20.84375 C 25.882812 -22.570312 26.546875 -24 27.484375 -25.125 C 28.421875 -26.25 29.535156 -27.085938 30.828125 -27.640625 C 32.128906 -28.203125 33.507812 -28.484375 34.96875 -28.484375 C 36.6875 -28.484375 38.226562 -28.109375 39.59375 -27.359375 C 40.957031 -26.609375 42.03125 -25.515625 42.8125 -24.078125 C 43.601562 -22.648438 44 -20.90625 44 -18.84375 L 44 0 L 36.40625 0 L 36.40625 -17.390625 C 36.40625 -19.003906 35.972656 -20.203125 35.109375 -20.984375 C 34.253906 -21.773438 33.191406 -22.171875 31.921875 -22.171875 C 30.953125 -22.171875 30.113281 -21.960938 29.40625 -21.546875 C 28.707031 -21.128906 28.164062 -20.546875 27.78125 -19.796875 C 27.40625 -19.054688 27.21875 -18.179688 27.21875 -17.171875 L 27.21875 0 L 19.875 0 L 19.875 -17.625 C 19.875 -19.007812 19.460938 -20.113281 18.640625 -20.9375 C 17.828125 -21.757812 16.769531 -22.171875 15.46875 -22.171875 C 14.570312 -22.171875 13.757812 -21.96875 13.03125 -21.5625 C 12.3125 -21.15625 11.738281 -20.554688 11.3125 -19.765625 C 10.894531 -18.984375 10.6875 -18.015625 10.6875 -16.859375 L 10.6875 0 Z M 3.125 0 "/></g></g></g></svg>